<svg xmlns="http://www.w3.org/2000/svg" viewBox="0 0 100 100">
  {/* Circular Blue Swash */}
  <path 
    d="M75 15 C68 10 60 7 50 7 C26.25 7 7 26.25 7 50 C7 73.75 26.25 93 50 93 C63 93 74 87 82 78" 
    fill="none" 
    stroke="#00529b" 
    stroke-width="14" 
    stroke-linecap="round" 
    stroke-linejoin="round"
  />
  
  {/* Green Globe */}
  <circle cx="50" cy="50" r="30" fill="#00a651" />
  
  {/* Globe Detail (Landmasses) */}
  <path 
    d="M42 32 Q45 28 48 30 T55 35 Q58 40 55 45 T48 50 Q45 55 50 60 T55 68 M40 45 Q35 50 38 55 T45 60" 
    fill="none" 
    stroke="white" 
    stroke-width="2" 
    stroke-linecap="round" 
    opacity="0.6"
  />
  <path
    d="M30 45 Q35 48 40 45 T50 48 T65 45 M35 55 Q45 58 55 55 T70 58"
    fill="none"
    stroke="white"
    stroke-width="1.5"
    stroke-opacity="0.4"
  />
</svg>